<svg width="205" height="196" viewBox="0 0 205 196" fill="none" xmlns="http://www.w3.org/2000/svg">
<rect width="205" height="196" fill="#E45353"/>
<path d="M96.5206 154.566C88.9886 154.566 82.5007 153.186 77.0568 150.427C71.6129 147.668 67.4181 143.883 64.4725 139.073C61.5268 134.263 60.054 128.763 60.054 122.574C60.054 117.801 61.0607 113.569 63.0742 109.878C65.125 106.149 67.9402 102.7 71.5197 99.5305C75.1365 96.3239 79.294 93.1172 83.9922 89.9105L100.548 77.6058C103.792 75.4805 106.383 73.206 108.322 70.7823C110.298 68.3587 111.286 65.1893 111.286 61.2741C111.286 58.3658 110 55.5506 107.427 52.8287C104.892 50.1067 101.554 48.7457 97.4155 48.7457C94.5071 48.7457 91.9343 49.4915 89.6971 50.9829C87.4972 52.4371 85.7633 54.3015 84.4956 56.576C83.2651 58.8132 82.6499 61.125 82.6499 63.5114C82.6499 66.196 83.377 68.918 84.8311 71.6772C86.3226 74.3991 88.2056 77.1957 90.4801 80.0668C92.7919 82.9006 95.1783 85.8089 97.6392 88.7919L150.214 153H134.33L90.9276 100.649C86.9006 95.8018 83.2465 91.402 79.9652 87.4496C76.684 83.4972 74.0739 79.6007 72.1349 75.7601C70.196 71.9196 69.2266 67.7621 69.2266 63.2876C69.2266 58.142 70.3638 53.6303 72.6383 49.7525C74.9501 45.8374 78.1754 42.7985 82.3143 40.6358C86.4904 38.4359 91.375 37.3359 96.968 37.3359C102.71 37.3359 107.651 38.4545 111.79 40.6918C115.928 42.8917 119.116 45.8187 121.354 49.4728C123.591 53.0897 124.71 57.0234 124.71 61.2741C124.71 66.7553 123.349 71.5094 120.627 75.5364C117.905 79.5634 114.195 83.3107 109.496 86.7784L86.6768 103.781C81.5313 107.585 78.0449 111.276 76.2179 114.855C74.3908 118.435 73.4773 121.008 73.4773 122.574C73.4773 126.153 74.4094 129.491 76.2738 132.585C78.1381 135.68 80.7669 138.178 84.16 140.08C87.5531 141.982 91.5241 142.933 96.0732 142.933C100.398 142.933 104.612 142.019 108.713 140.192C112.815 138.328 116.525 135.643 119.844 132.138C123.199 128.633 125.847 124.42 127.786 119.498C129.762 114.576 130.75 109.039 130.75 102.886H143.502C143.502 110.493 142.626 116.701 140.873 121.511C139.121 126.321 137.145 130.087 134.945 132.809C132.745 135.531 130.974 137.563 129.631 138.906C129.184 139.465 128.774 140.024 128.401 140.583C128.028 141.143 127.618 141.702 127.17 142.261C123.479 146.4 118.818 149.495 113.188 151.546C107.558 153.559 102.002 154.566 96.5206 154.566Z" fill="white"/>
</svg>
